<svg width="25" height="43" viewBox="0 0 25 43" fill="none" xmlns="http://www.w3.org/2000/svg">
<path d="M5.344 38.077C4.83067 38.077 4.36867 37.989 3.958 37.813C3.54733 37.6297 3.22467 37.373 2.99 37.043C2.75533 36.713 2.638 36.328 2.638 35.888H3.98C4.00933 36.218 4.13767 36.4893 4.365 36.702C4.59967 36.9147 4.926 37.021 5.344 37.021C5.77667 37.021 6.114 36.9183 6.356 36.713C6.598 36.5003 6.719 36.229 6.719 35.899C6.719 35.6423 6.642 35.4333 6.488 35.272C6.34133 35.1107 6.15433 34.986 5.927 34.898C5.707 34.81 5.399 34.7147 5.003 34.612C4.50433 34.48 4.09733 34.348 3.782 34.216C3.474 34.0767 3.21 33.864 2.99 33.578C2.77 33.292 2.66 32.9107 2.66 32.434C2.66 31.994 2.77 31.609 2.99 31.279C3.21 30.949 3.518 30.696 3.914 30.52C4.31 30.344 4.76833 30.256 5.289 30.256C6.02967 30.256 6.63467 30.443 7.104 30.817C7.58067 31.1837 7.84467 31.6897 7.896 32.335H6.51C6.488 32.0563 6.356 31.818 6.114 31.62C5.872 31.422 5.553 31.323 5.157 31.323C4.79767 31.323 4.50433 31.4147 4.277 31.598C4.04967 31.7813 3.936 32.0453 3.936 32.39C3.936 32.6247 4.00567 32.819 4.145 32.973C4.29167 33.1197 4.475 33.237 4.695 33.325C4.915 33.413 5.21567 33.5083 5.597 33.611C6.103 33.7503 6.51367 33.8897 6.829 34.029C7.15167 34.1683 7.423 34.3847 7.643 34.678C7.87033 34.964 7.984 35.349 7.984 35.833C7.984 36.2217 7.87767 36.5883 7.665 36.933C7.45967 37.2777 7.15533 37.5563 6.752 37.769C6.356 37.9743 5.88667 38.077 5.344 38.077ZM15.0187 34.821C15.0187 35.0483 15.004 35.2537 14.9747 35.437H10.3437C10.3803 35.921 10.56 36.3097 10.8827 36.603C11.2053 36.8963 11.6013 37.043 12.0707 37.043C12.7453 37.043 13.222 36.7607 13.5007 36.196H14.8537C14.6703 36.7533 14.3367 37.2117 13.8527 37.571C13.376 37.923 12.782 38.099 12.0707 38.099C11.4913 38.099 10.9707 37.9707 10.5087 37.714C10.054 37.45 9.69467 37.0833 9.43067 36.614C9.17401 36.1373 9.04567 35.5873 9.04567 34.964C9.04567 34.3407 9.17034 33.7943 9.41967 33.325C9.67634 32.8483 10.032 32.4817 10.4867 32.225C10.9487 31.9683 11.4767 31.84 12.0707 31.84C12.6427 31.84 13.1523 31.9647 13.5997 32.214C14.047 32.4633 14.3953 32.8153 14.6447 33.27C14.894 33.7173 15.0187 34.2343 15.0187 34.821ZM13.7097 34.425C13.7023 33.963 13.5373 33.5927 13.2147 33.314C12.892 33.0353 12.4923 32.896 12.0157 32.896C11.583 32.896 11.2127 33.0353 10.9047 33.314C10.5967 33.5853 10.4133 33.9557 10.3547 34.425H13.7097ZM17.5067 29.86V38H16.2527V29.86H17.5067ZM20.4071 29.86V38H19.1531V29.86H20.4071Z" fill="#FF0022"/>
<circle cx="12.5" cy="12.5" r="12.5" fill="#FF0022"/>
<path d="M7.69238 12.5L17.3078 12.5" stroke="white" stroke-width="2" stroke-linecap="round"/>
<path d="M12.5 17.3071V7.69174" stroke="white" stroke-width="2" stroke-linecap="round"/>
</svg>
53.9152 167.445 54.0885 166.682 54.0885 165.798ZM66.8216 173.234C65.643 173.234 64.5856 173.026 63.6496 172.61C62.7136 172.177 61.9683 171.596 61.4136 170.868C60.8763 170.14 60.5816 169.334 60.5296 168.45H64.1956C64.265 169.005 64.5336 169.464 65.0016 169.828C65.487 170.192 66.085 170.374 66.7956 170.374C67.489 170.374 68.0263 170.235 68.4076 169.958C68.8063 169.681 69.0056 169.325 69.0056 168.892C69.0056 168.424 68.763 168.077 68.2776 167.852C67.8096 167.609 67.0556 167.349 66.0156 167.072C64.941 166.812 64.057 166.543 63.3636 166.266C62.6876 165.989 62.0983 165.564 61.5956 164.992C61.1103 164.42 60.8676 163.649 60.8676 162.678C60.8676 161.881 61.093 161.153 61.5436 160.494C62.0116 159.835 62.6703 159.315 63.5196 158.934C64.3863 158.553 65.4003 158.362 66.5616 158.362C68.2776 158.362 69.647 158.795 70.6696 159.662C71.6923 160.511 72.2556 161.664 72.3596 163.12H68.8756C68.8236 162.548 68.581 162.097 68.1476 161.768C67.7316 161.421 67.1683 161.248 66.4576 161.248C65.799 161.248 65.2876 161.369 64.9236 161.612C64.577 161.855 64.4036 162.193 64.4036 162.626C64.4036 163.111 64.6463 163.484 65.1316 163.744C65.617 163.987 66.371 164.238 67.3936 164.498C68.4336 164.758 69.2916 165.027 69.9676 165.304C70.6436 165.581 71.2243 166.015 71.7096 166.604C72.2123 167.176 72.4723 167.939 72.4896 168.892C72.4896 169.724 72.2556 170.469 71.7876 171.128C71.337 171.787 70.6783 172.307 69.8116 172.688C68.9623 173.052 67.9656 173.234 66.8216 173.234ZM80.9896 173.234C79.8109 173.234 78.7536 173.026 77.8176 172.61C76.8816 172.177 76.1363 171.596 75.5816 170.868C75.0443 170.14 74.7496 169.334 74.6976 168.45H78.3636C78.4329 169.005 78.7016 169.464 79.1696 169.828C79.6549 170.192 80.2529 170.374 80.9636 170.374C81.6569 170.374 82.1943 170.235 82.5756 169.958C82.9743 169.681 83.1736 169.325 83.1736 168.892C83.1736 168.424 82.9309 168.077 82.4456 167.852C81.9776 167.609 81.2236 167.349 80.1836 167.072C79.1089 166.812 78.2249 166.543 77.5316 166.266C76.8556 165.989 76.2663 165.564 75.7636 164.992C75.2783 164.42 75.0356 163.649 75.0356 162.678C75.0356 161.881 75.2609 161.153 75.7116 160.494C76.1796 159.835 76.8383 159.315 77.6876 158.934C78.5543 158.553 79.5683 158.362 80.7296 158.362C82.4456 158.362 83.8149 158.795 84.8376 159.662C85.8603 160.511 86.4236 161.664 86.5276 163.12H83.0436C82.9916 162.548 82.7489 162.097 82.3156 161.768C81.8996 161.421 81.3363 161.248 80.6256 161.248C79.9669 161.248 79.4556 161.369 79.0916 161.612C78.7449 161.855 78.5716 162.193 78.5716 162.626C78.5716 163.111 78.8143 163.484 79.2996 163.744C79.7849 163.987 80.5389 164.238 81.5616 164.498C82.6016 164.758 83.4596 165.027 84.1356 165.304C84.8116 165.581 85.3923 166.015 85.8776 166.604C86.3803 167.176 86.6403 167.939 86.6576 168.892C86.6576 169.724 86.4236 170.469 85.9556 171.128C85.5049 171.787 84.8463 172.307 83.9796 172.688C83.1303 173.052 82.1336 173.234 80.9896 173.234ZM103.036 165.486C103.036 166.006 103.001 166.474 102.932 166.89H92.4016C92.4882 167.93 92.8522 168.745 93.4936 169.334C94.1349 169.923 94.9236 170.218 95.8596 170.218C97.2116 170.218 98.1736 169.637 98.7456 168.476H102.672C102.256 169.863 101.458 171.007 100.28 171.908C99.1009 172.792 97.6536 173.234 95.9376 173.234C94.5509 173.234 93.3029 172.931 92.1936 172.324C91.1016 171.7 90.2436 170.825 89.6196 169.698C89.0129 168.571 88.7096 167.271 88.7096 165.798C88.7096 164.307 89.0129 162.999 89.6196 161.872C90.2262 160.745 91.0756 159.879 92.1676 159.272C93.2596 158.665 94.5162 158.362 95.9376 158.362C97.3069 158.362 98.5289 158.657 99.6036 159.246C100.696 159.835 101.536 160.676 102.126 161.768C102.732 162.843 103.036 164.082 103.036 165.486ZM99.2656 164.446C99.2482 163.51 98.9102 162.765 98.2516 162.21C97.5929 161.638 96.7869 161.352 95.8336 161.352C94.9322 161.352 94.1696 161.629 93.5456 162.184C92.9389 162.721 92.5662 163.475 92.4276 164.446H99.2656ZM109.93 161.586V168.554C109.93 169.039 110.043 169.395 110.268 169.62C110.511 169.828 110.91 169.932 111.464 169.932H113.154V173H110.866C107.798 173 106.264 171.509 106.264 168.528V161.586H104.548V158.596H106.264V155.034H109.93V158.596H113.154V161.586H109.93ZM121.285 173.234C120.106 173.234 119.049 173.026 118.113 172.61C117.177 172.177 116.431 171.596 115.877 170.868C115.339 170.14 115.045 169.334 114.993 168.45H118.659C118.728 169.005 118.997 169.464 119.465 169.828C119.95 170.192 120.548 170.374 121.259 170.374C121.952 170.374 122.489 170.235 122.871 169.958C123.269 169.681 123.469 169.325 123.469 168.892C123.469 168.424 123.226 168.077 122.741 167.852C122.273 167.609 121.519 167.349 120.479 167.072C119.404 166.812 118.52 166.543 117.827 166.266C117.151 165.989 116.561 165.564 116.059 164.992C115.573 164.42 115.331 163.649 115.331 162.678C115.331 161.881 115.556 161.153 116.007 160.494C116.475 159.835 117.133 159.315 117.983 158.934C118.849 158.553 119.863 158.362 121.025 158.362C122.741 158.362 124.11 158.795 125.133 159.662C126.155 160.511 126.719 161.664 126.823 163.12H123.339C123.287 162.548 123.044 162.097 122.611 161.768C122.195 161.421 121.631 161.248 120.921 161.248C120.262 161.248 119.751 161.369 119.387 161.612C119.04 161.855 118.867 162.193 118.867 162.626C118.867 163.111 119.109 163.484 119.595 163.744C120.08 163.987 120.834 164.238 121.857 164.498C122.897 164.758 123.755 165.027 124.431 165.304C125.107 165.581 125.687 166.015 126.173 166.604C126.675 167.176 126.935 167.939 126.953 168.892C126.953 169.724 126.719 170.469 126.251 171.128C125.8 171.787 125.141 172.307 124.275 172.688C123.425 173.052 122.429 173.234 121.285 173.234ZM142.74 161.586H140.218V173H136.526V161.586H134.888V158.596H136.526V157.868C136.526 156.1 137.028 154.8 138.034 153.968C139.039 153.136 140.556 152.746 142.584 152.798V155.866C141.7 155.849 141.084 155.996 140.738 156.308C140.391 156.62 140.218 157.183 140.218 157.998V158.596H142.74V161.586ZM151.495 173.234C150.108 173.234 148.86 172.931 147.751 172.324C146.641 171.7 145.766 170.825 145.125 169.698C144.501 168.571 144.189 167.271 144.189 165.798C144.189 164.325 144.509 163.025 145.151 161.898C145.809 160.771 146.702 159.905 147.829 159.298C148.955 158.674 150.212 158.362 151.599 158.362C152.985 158.362 154.242 158.674 155.369 159.298C156.495 159.905 157.379 160.771 158.021 161.898C158.679 163.025 159.009 164.325 159.009 165.798C159.009 167.271 158.671 168.571 157.995 169.698C157.336 170.825 156.435 171.7 155.291 172.324C154.164 172.931 152.899 173.234 151.495 173.234ZM151.495 170.062C152.153 170.062 152.769 169.906 153.341 169.594C153.93 169.265 154.398 168.779 154.745 168.138C155.091 167.497 155.265 166.717 155.265 165.798C155.265 164.429 154.901 163.38 154.173 162.652C153.462 161.907 152.587 161.534 151.547 161.534C150.507 161.534 149.631 161.907 148.921 162.652C148.227 163.38 147.881 164.429 147.881 165.798C147.881 167.167 148.219 168.225 148.895 168.97C149.588 169.698 150.455 170.062 151.495 170.062ZM175.277 158.596V173H171.611V171.18C171.143 171.804 170.527 172.298 169.765 172.662C169.019 173.009 168.205 173.182 167.321 173.182C166.194 173.182 165.197 172.948 164.331 172.48C163.464 171.995 162.779 171.293 162.277 170.374C161.791 169.438 161.549 168.329 161.549 167.046V158.596H165.189V166.526C165.189 167.67 165.475 168.554 166.047 169.178C166.619 169.785 167.399 170.088 168.387 170.088C169.392 170.088 170.181 169.785 170.753 169.178C171.325 168.554 171.611 167.67 171.611 166.526V158.596H175.277ZM186.85 158.388C188.566 158.388 189.953 158.934 191.01 160.026C192.068 161.101 192.596 162.609 192.596 164.55V173H188.956V165.044C188.956 163.9 188.67 163.025 188.098 162.418C187.526 161.794 186.746 161.482 185.758 161.482C184.753 161.482 183.956 161.794 183.366 162.418C182.794 163.025 182.508 163.9 182.508 165.044V173H178.868V158.596H182.508V160.39C182.994 159.766 183.609 159.281 184.354 158.934C185.117 158.57 185.949 158.388 186.85 158.388ZM195.122 165.746C195.122 164.29 195.408 162.999 195.98 161.872C196.569 160.745 197.366 159.879 198.372 159.272C199.377 158.665 200.495 158.362 201.726 158.362C202.662 158.362 203.554 158.57 204.404 158.986C205.253 159.385 205.929 159.922 206.432 160.598V153.76H210.124V173H206.432V170.868C205.981 171.579 205.348 172.151 204.534 172.584C203.719 173.017 202.774 173.234 201.7 173.234C200.486 173.234 199.377 172.922 198.372 172.298C197.366 171.674 196.569 170.799 195.98 169.672C195.408 168.528 195.122 167.219 195.122 165.746ZM206.458 165.798C206.458 164.914 206.284 164.16 205.938 163.536C205.591 162.895 205.123 162.409 204.534 162.08C203.944 161.733 203.312 161.56 202.636 161.56C201.96 161.56 201.336 161.725 200.764 162.054C200.192 162.383 199.724 162.869 199.36 163.51C199.013 164.134 198.84 164.879 198.84 165.746C198.84 166.613 199.013 167.375 199.36 168.034C199.724 168.675 200.192 169.169 200.764 169.516C201.353 169.863 201.977 170.036 202.636 170.036C203.312 170.036 203.944 169.871 204.534 169.542C205.123 169.195 205.591 168.71 205.938 168.086C206.284 167.445 206.458 166.682 206.458 165.798Z" fill="#AEB9C0"/>
</svg>
